<svg xmlns="http://www.w3.org/2000/svg" viewBox="0 0 1200 400" width="1200" height="400" font-family="'JetBrains Mono','Fira Code',ui-monospace,monospace">
  <defs>
    <linearGradient id="bg" x1="0" y1="0" x2="1" y2="1">
      <stop offset="0%" stop-color="#020617"/>
      <stop offset="45%" stop-color="#0F2557"/>
      <stop offset="100%" stop-color="#1E40AF"/>
    </linearGradient>
    <linearGradient id="glow" x1="0" y1="1" x2="1" y2="0">
      <stop offset="0%" stop-color="#3B82F6" stop-opacity="0.35"/>
      <stop offset="100%" stop-color="#3B82F6" stop-opacity="0"/>
    </linearGradient>
    <pattern id="grid" width="40" height="40" patternUnits="userSpaceOnUse">
      <path d="M40 0 L0 0 0 40" fill="none" stroke="#3B82F6" stroke-opacity="0.10" stroke-width="1"/>
    </pattern>
  </defs>

  <rect width="1200" height="400" fill="url(#bg)"/>
  <rect width="1200" height="400" fill="url(#grid)"/>
  <circle cx="1050" cy="330" r="260" fill="url(#glow)"/>

  <g fill="#60A5FA">
    <circle cx="905" cy="88" r="2.5" opacity="0.75"/>
    <circle cx="978" cy="140" r="1.8" opacity="0.5"/>
    <circle cx="1042" cy="96" r="2.2" opacity="0.65"/>
    <circle cx="1108" cy="168" r="1.6" opacity="0.45"/>
    <circle cx="866" cy="196" r="1.8" opacity="0.4"/>
    <circle cx="1136" cy="72" r="2.4" opacity="0.6"/>
    <circle cx="962" cy="236" r="1.5" opacity="0.35"/>
    <circle cx="1076" cy="252" r="2" opacity="0.5"/>
  </g>

  <g opacity="0.9">
    <text x="880" y="120" font-size="15" fill="#3B82F6" opacity="0.55">{ }</text>
    <text x="1040" y="200" font-size="15" fill="#3B82F6" opacity="0.45">&lt;/&gt;</text>
    <text x="930" y="290" font-size="15" fill="#3B82F6" opacity="0.4">$_</text>
    <text x="1120" y="258" font-size="15" fill="#3B82F6" opacity="0.35">[ ]</text>
  </g>

  <rect x="78" y="150" width="4" height="118" fill="#3B82F6"/>

  <text x="110" y="196" font-size="58" font-weight="700" fill="#FFFFFF" letter-spacing="-1">Ashutosh Gauniyal</text>
  <text x="112" y="240" font-size="25" font-weight="500" fill="#93C5FD">AI Engineer and Full-Stack Developer</text>

  <g transform="translate(112,264)">
    <path d="M7 0C3.13 0 0 3.13 0 7c0 5.25 7 13 7 13s7-7.75 7-13c0-3.87-3.13-7-7-7zm0 9.5A2.5 2.5 0 1 1 7 4.5a2.5 2.5 0 0 1 0 5z" fill="#FFFFFF" opacity="0.85"/>
    <text x="24" y="16" font-size="18" fill="#E2E8F0">Christchurch, New Zealand</text>
  </g>

  <rect x="0" y="384" width="1200" height="16" fill="#020617"/>
  <rect x="0" y="384" width="300" height="3" fill="#3B82F6"/>
</svg>
